# xmcd CD database file
#
# Track frame offsets:
#	150
#	20894
#	36510
#	56643
#	74402
#	92062
#	109492
#	125264
#	143780
#	160165
#	179226
#	194483
#	210487
#	226314
#	241639
#	260652
#	277998
#	298656
#	316504
#
# Disc length: 4452 seconds
#
# Revision: 1
# Processed by: cddbd v1.5.2PL0 Copyright (c) Steve Scherf et al.
# Submitted via: CDex 1.51
#
DISCID=22116213
DTITLE=Yanni - Voices
DYEAR=2008
DGENRE=New Age
TTITLE0=Omaggio
TTITLE1=The Keeper
TTITLE2=Our Days
TTITLE3=Never Leave The Sun
TTITLE4=Before The Night Ends
TTITLE5=1001
TTITLE6=Mas Alla
TTITLE7=Enchantment
TTITLE8=Almost A Whisper
TTITLE9=Orchid
TTITLE10=Set Me Free
TTITLE11=Kill Me With Your Love
TTITLE12=Love Take Me
TTITLE13=Until The Last Moment
TTITLE14=Desire
TTITLE15=Moments Without Time
TTITLE16=I'm So
TTITLE17=In The Mirror
TTITLE18=Adagio In C Minor
EXTD=YEAR: 2008
EXTT0=
EXTT1=
EXTT2=
EXTT3=
EXTT4=
EXTT5=
EXTT6=
EXTT7=
EXTT8=
EXTT9=
EXTT10=
EXTT11=
EXTT12=
EXTT13=
EXTT14=
EXTT15=
EXTT16=
EXTT17=
EXTT18=
PLAYORDER=
